<svg xmlns="http://www.w3.org/2000/svg" viewBox="0 0 431 78" fill="white">
  <path d="M 675.539,97.2344 V 441.449 h 66.289 V 155.371 h 111.68 V 97.2344 H 675.539" transform="scale(0.13333) translate(0,0) scale(1,-1) translate(0,-581)" />
  <g transform="matrix(0.13333,0,0,-0.13333,0,77.507)">
    <path d="M 675.539,97.2344 V 441.449 h 66.289 V 155.371 h 111.68 V 97.2344 H 675.539" style="fill:#ffffff;fill-opacity:1;fill-rule:nonzero;stroke:none" />
    <path d="m 979.984,307.848 c -27.023,0 -45.89,-20.403 -49.461,-52.02 h 93.317 c 1.02,33.152 -16.31,52.02 -43.856,52.02 z M 1086.06,212.48 H 929.504 c -0.516,-46.914 20.906,-69.355 69.863,-69.355 23.963,0 49.463,5.105 73.433,14.793 l 7.14,-49.461 C 1052.4,98.25 1019.25,92.1367 988.145,92.1367 c -80.063,0 -124.934,40.2853 -124.934,129.5233 0,75.985 44.871,134.121 120.344,134.121 73.945,0 105.045,-47.426 105.045,-107.609 0,-9.688 -0.5,-24.473 -2.54,-35.692" style="fill:#ffffff;fill-opacity:1;fill-rule:nonzero;stroke:none" />
    <path d="M 1300.6,97.2344 V 259.398 c 0,26.004 -7.14,41.817 -31.11,41.817 -33.14,0 -59.15,-37.227 -59.15,-81.598 V 97.2344 h -64.76 V 300.707 c -12.24,2.035 -29.58,4.078 -44.37,5.098 v 40.797 c 32.13,4.078 71.39,5.609 105.56,4.589 0,-12.242 -1.02,-32.128 -3.57,-45.894 h 0.51 c 15.3,29.574 44.87,50.484 86.18,50.484 57.11,0 75.47,-36.207 75.47,-80.57 V 97.2344 h -64.76" style="fill:#ffffff;fill-opacity:1;fill-rule:nonzero;stroke:none" />
    <path d="m 1405.05,97.2344 v 46.4066 l 101.99,149.414 c -9.69,-0.508 -29.58,-1.02 -54.06,-1.02 h -44.87 v 58.645 h 177.46 v -46.403 l -99.95,-147.89 c 10.71,0.508 38.76,0.508 57.62,0.508 h 44.37 V 97.2344 h -182.56" style="fill:#ffffff;fill-opacity:1;fill-rule:nonzero;stroke:none" />
    <path d="m 1727.29,307.848 c -27.03,0 -45.89,-20.403 -49.46,-52.02 h 93.32 c 1.02,33.152 -16.32,52.02 -43.86,52.02 z m 106.07,-95.368 h -156.55 c -0.52,-46.914 20.91,-69.355 69.86,-69.355 23.97,0 49.46,5.105 73.44,14.793 l 7.14,-49.461 c -27.54,-10.207 -60.69,-16.3203 -91.8,-16.3203 -80.06,0 -124.94,40.2853 -124.94,129.5233 0,75.985 44.88,134.121 120.35,134.121 73.95,0 105.05,-47.426 105.05,-107.609 0,-9.688 -0.51,-24.473 -2.55,-35.692" style="fill:#ffffff;fill-opacity:1;fill-rule:nonzero;stroke:none" />
    <path d="m 2031.25,291.527 c -48.45,10.196 -71.9,-20.398 -71.9,-90.777 V 97.2344 h -64.77 V 300.707 c -12.24,2.035 -29.58,4.078 -44.36,5.098 v 40.797 c 32.12,4.078 71.39,5.609 105.55,4.589 0,-13.257 -1.52,-33.66 -4.59,-51.503 h 1.03 c 12.23,32.125 36.72,60.167 82.1,56.093 l -3.06,-64.254" style="fill:#ffffff;fill-opacity:1;fill-rule:nonzero;stroke:none" />
    <path d="M 2232.75,97.2344 V 259.398 c 0,26.004 -7.13,41.817 -31.61,41.817 -33.15,0 -58.65,-37.227 -58.65,-82.106 V 97.2344 h -65.27 V 419.523 c -12.24,2.04 -29.57,4.079 -44.37,5.098 v 40.797 c 32.64,4.078 71.91,5.609 109.64,4.59 V 360.371 c 0,-15.301 -1.01,-36.207 -4.59,-51.504 h 1.03 c 14.78,28.047 43.35,46.914 83.12,46.914 57.11,0 75.47,-36.207 75.47,-80.57 V 97.2344 h -64.77" style="fill:#ffffff;fill-opacity:1;fill-rule:nonzero;stroke:none" />
    <path d="m 2446.67,307.848 c -27.03,0 -45.9,-20.403 -49.46,-52.02 h 93.32 c 1.01,33.152 -16.32,52.02 -43.86,52.02 z m 106.06,-95.368 h -156.55 c -0.51,-46.914 20.91,-69.355 69.87,-69.355 23.96,0 49.46,5.105 73.43,14.793 l 7.14,-49.461 c -27.54,-10.207 -60.68,-16.3203 -91.8,-16.3203 -80.05,0 -124.93,40.2853 -124.93,129.5233 0,75.985 44.88,134.121 120.34,134.121 73.95,0 105.05,-47.426 105.05,-107.609 0,-9.688 -0.5,-24.473 -2.55,-35.692" style="fill:#ffffff;fill-opacity:1;fill-rule:nonzero;stroke:none" />
    <path d="m 2647.77,388.418 c -21.92,0 -40.28,17.34 -40.28,39.262 0,21.929 18.36,39.781 40.28,39.781 22.45,0 40.8,-17.34 40.8,-39.781 0,-21.414 -18.35,-39.262 -40.8,-39.262 z M 2615.65,97.2344 V 300.707 c -12.24,2.035 -29.58,4.078 -44.36,5.098 v 40.797 c 32.12,4.078 71.39,5.609 109.12,4.589 V 97.2344 h -64.76" style="fill:#ffffff;fill-opacity:1;fill-rule:nonzero;stroke:none" />
    <path d="m 2886.95,299.688 c -11.72,2.546 -22.95,4.078 -34.17,4.078 -37.22,0 -63.74,-23.457 -63.74,-86.188 0,-47.422 13.77,-71.894 43.34,-71.894 34.17,0 54.57,39.773 54.57,83.113 z m 4.08,-202.9614 c 0,12.7464 1.02,29.0624 3.06,42.8324 h -1.02 c -13.25,-28.047 -41.3,-47.9379 -80.06,-47.9379 -61.7,0 -92.31,46.4059 -92.31,118.8169 0,85.679 49.98,144.832 134.12,144.832 10.72,0 20.91,-0.508 32.13,-2.04 v 66.293 c -12.24,2.04 -29.58,4.079 -44.36,5.098 v 40.797 c 32.12,4.078 71.9,5.609 109.13,4.59 V 147.207 c 12.24,-2.043 29.57,-4.082 44.36,-5.098 v -40.8 c -32.12,-4.0746 -71.39,-5.6059 -105.05,-4.5824" style="fill:#ffffff;fill-opacity:1;fill-rule:nonzero;stroke:none" />
    <path d="m 3124.22,307.848 c -27.03,0 -45.9,-20.403 -49.46,-52.02 h 93.32 c 1.01,33.152 -16.32,52.02 -43.86,52.02 z m 106.06,-95.368 h -156.55 c -0.51,-46.914 20.91,-69.355 69.86,-69.355 23.97,0 49.47,5.105 73.44,14.793 l 7.14,-49.461 c -27.54,-10.207 -60.68,-16.3203 -91.8,-16.3203 -80.05,0 -124.93,40.2853 -124.93,129.5233 0,75.985 44.88,134.121 120.34,134.121 73.95,0 105.05,-47.426 105.05,-107.609 0,-9.688 -0.51,-24.473 -2.55,-35.692" style="fill:#ffffff;fill-opacity:1;fill-rule:nonzero;stroke:none" />
    <path d="m 131.5,0 17.699,0.261719 C 336.48,0.261719 482.672,168.281 482.672,350.703 H 393.824 C 393.824,210.848 288.504,96.9336 144.941,96.9336 L 131.5,0" style="fill:#ffffff;fill-opacity:1;fill-rule:nonzero;stroke:none" />
    <path d="M 491.848,580.945 C 322.926,588.094 261.59,490.055 261.59,350.996 h 97.328 c -12.852,130.16 62.937,173.711 123.797,170.34 l 9.133,59.609" style="fill:#ffffff;fill-opacity:1;fill-rule:nonzero;stroke:none" />
    <path d="m 0,580.945 c 168.91,7.149 230.258,-90.89 230.258,-229.949 H 132.93 C 145.781,481.156 69.9805,524.707 9.12109,521.336 L 0,580.945" style="fill:#ffffff;fill-opacity:1;fill-rule:nonzero;stroke:none" />
  </g>
</svg>
