<svg xmlns="http://www.w3.org/2000/svg" width="178.7" height="36.28" viewBox="0 0 178.7 36.28">
  <defs>
    <clipPath id="b">
      <rect width="178.7" height="36.28" fill="none" stroke-width="0"></rect>
    </clipPath>
  </defs>
  <g clip-path="url(#b)">
    <path d="m19.35,15.12c0,.68-.46,1.43-1.52,1.43-.78,0-1.51-.46-1.51-1.27,0-.44.21-.81.62-1.01-.08-.31-.55-.52-1.15-.52-.84,0-1.53.52-1.53,1.39,0,.99.96,1.36,1.85,1.77,1.66.73,2.41,1.5,2.41,2.95,0,2.03-2.29,3.29-4.75,3.29-1.91,0-3.63-.83-3.63-2.38,0-.94.63-1.68,1.65-1.68.79,0,1.54.55,1.54,1.39,0,.57-.32.9-.79,1.19.12.39.67.82,1.48.82.96,0,1.72-.66,1.72-1.62,0-.9-.74-1.48-1.47-1.83-1.21-.56-2.68-1.14-2.68-2.77,0-2.29,2.65-3.12,4.43-3.12s3.33.66,3.33,1.98m6.7-1.99c1.73,0,3.02.75,3.02,2.38,0,1.11-.6,2-1.78,2-.88,0-1.45-.63-1.45-1.41,0-.9.74-1.49,1.57-1.49,0-.55-.45-.84-1.02-.84-1.73,0-3.07,2.73-3.07,5.59,0,1.69.69,2.54,1.86,2.54,1.48,0,2.42-1.36,2.82-2.3l.58.26c-.28.82-1.54,3.29-4.8,3.29-2.35,0-3.58-1.45-3.58-3.8,0-3.37,2.5-6.22,5.84-6.22m6.1-1.71c.05-.18.21-.78.21-1.03,0-.69-.63-.78-1.62-.78l.14-.65,4.75-.2-1.65,6.54.07.02c.72-1.27,1.66-2.12,3.05-2.12,1.3,0,2.44.7,2.44,2.33,0,1.87-1.54,4.55-1.54,5.85,0,.33.13.56.43.56.54,0,1.02-.7,1.58-2.31l.63.21c-.46,1.65-1.33,3.29-3.25,3.29-1.23,0-2.18-.69-2.18-2.04,0-1.8,1.61-4.49,1.61-6.07,0-.56-.25-.78-.64-.78-1.78,0-3.16,5.19-3.63,7.06l-.39,1.6c-.5-.12-.97-.18-1.46-.18-.45,0-.94.05-1.52.2l2.96-11.52Zm12.29,1.74c1.19,0,2.17.76,2.17,2.12,0,1.75-1.61,3.67-1.61,5.38,0,.89.43,1.39,1.32,1.39.63,0,1.17-.36,1.67-1.04-.11-.39-.12-.78-.12-.97,0-1.41.95-4.48,1.39-6.69.49.13.98.19,1.48.19s.98-.06,1.54-.19c-.7,2.75-1.53,5.33-1.53,6.99,0,1.16.43,1.71,1.23,1.71,1.41,0,2.26-1.74,2.26-3.1,0-2.01-.75-2.71-.75-3.98,0-.96.43-1.79,1.42-1.79,1.3,0,1.62,1.43,1.62,2.77,0,3.09-2.1,7.22-5.78,7.22-1.16,0-2.05-.43-2.51-1.41h-.05c-.83.94-1.85,1.41-3.08,1.41-1.74,0-3.07-1.07-3.07-2.91,0-2.2,1.8-3.9,1.8-5.33,0-.44-.15-.59-.42-.59-.54,0-1.11.84-1.55,2.29l-.6-.23c.37-1.49,1.42-3.21,3.16-3.21m13.15,10.25c.89,0,1.42.59,1.42,1.37,0,.65-.38,1.04-.71,1.22.2.54.84.77,1.6.77,2.97,0,4.73-2.99,5.79-6.14h-.08c-.84,1.66-2.36,2.51-4.27,2.51-1.77,0-3.14-.98-3.14-2.91,0-2.15,1.81-3.9,1.81-5.42,0-.32-.12-.51-.38-.51-.72,0-1.32,1.39-1.58,2.29l-.6-.23c.27-1.19,1.22-3.21,3.14-3.21,1.21,0,2.17.76,2.17,2.16,0,1.04-.55,2-1.14,3.63-.25.68-.38,1.13-.38,1.62,0,1.01.53,1.44,1.33,1.44,1.66,0,2.87-1.81,2.87-3.46,0-2.16-1.29-2.26-1.29-3.86,0-.83.53-1.5,1.43-1.5,1.37,0,1.67,1.5,1.67,2.88,0,4.24-2.55,12.18-8.13,12.18-1.86,0-3.46-.94-3.46-2.67,0-1.23.79-2.17,1.92-2.17m12.49-3.63l4.37-3.33v-.07c-.81,0-1.92-.49-2.89-.49-.65,0-1.09.32-1.09.96,0,.38.2.81.38,1.1l-.6.24c-.56-.74-.9-1.59-.9-2.48,0-1.6,1.04-2.51,2.42-2.51,2.18,0,3.33,1.8,4.38,1.8.37,0,.52-.21.52-.49,0-.21-.06-.32-.06-.56,0-.31.19-.7.64-.7s.66.39.66.84c0,1.23-1.49,2.04-2.5,2.38l-4.08,3.18v.06c1.2,0,1.92.5,3.08.5.99,0,1.36-.41,1.36-1.06,0-.38-.13-.76-.32-1.1l.6-.24c.49.71.79,1.49.79,2.43,0,1.58-.88,2.76-2.47,2.76-2.06,0-3.93-1.79-5.04-1.79-.34,0-.56.21-.56.51,0,.25.08.37.08.62,0,.32-.25.69-.69.69s-.68-.34-.68-.79c0-1.2,1.41-2.12,2.56-2.46m9.85.59c.82,0,1.38.55,1.38,1.34s-.56,1.34-1.38,1.34-1.38-.55-1.38-1.34.56-1.34,1.38-1.34" fill="white" stroke-width="0"></path>
    <path d="m87.28,23.14c-1.61,0-2.39-.59-2.39-2.19v-6.19h-1.68v-1.42h1.68v-2.81l1.66-.23v3.03h2.73l-.15,1.42h-2.57v5.9c0,.72.1,1.08,1,1.08.45,0,.92-.08,1.53-.24l.22,1.28c-.59.21-1.3.36-2.01.36m3.67-6.37c0-2.03,1.1-3.62,3.91-3.62s3.9,1.59,3.9,3.62v2.76c0,2-1.1,3.61-3.9,3.61s-3.91-1.61-3.91-3.61v-2.76Zm3.91,4.93c1.49,0,2.24-.7,2.24-2.11v-2.88c0-1.41-.75-2.11-2.24-2.11s-2.25.7-2.25,2.11v2.88c0,1.41.75,2.11,2.25,2.11m6.46-8.35h1.66v7.34c0,.64.32.89.93.89.71,0,2.18-.43,3.21-.96v-7.26h1.66v9.6h-1.33l-.17-.83c-1.07.52-2.73,1.03-3.88,1.03-1.53,0-2.09-.97-2.09-2.45v-7.35Zm10.61,0h1.45l.11,1.34c.7-.55,1.69-1.14,2.64-1.53l.2,1.51c-.9.44-1.94,1.11-2.74,1.67v6.61h-1.66v-9.6Zm6.91-4.21c.79,0,1.34.53,1.34,1.3s-.55,1.32-1.34,1.32-1.34-.53-1.34-1.32.55-1.3,1.34-1.3m-.83,4.21h1.66v9.6h-1.66v-9.6Zm4.56,7.99c.83.22,1.92.39,2.75.39,1.53,0,1.78-.27,1.78-1.3s-.07-1.15-2.03-1.62c-2.37-.59-2.6-1.06-2.6-3.06,0-1.78.78-2.58,3.32-2.58.92,0,1.93.11,2.71.33l-.12,1.36c-.81-.17-1.87-.27-2.65-.27-1.42,0-1.62.33-1.62,1.2,0,1.08.01,1.27,1.64,1.66,2.76.7,2.99,1.01,2.99,2.93s-.57,2.78-3.32,2.78c-.98,0-2.29-.23-3.06-.51l.21-1.3Zm8.78-7.99h1.34l.17.83c1.05-.51,2.71-1.02,3.85-1.02,1,0,1.57.37,1.84,1.02,1.15-.55,2.76-1.02,3.97-1.02,1.53,0,2.1.97,2.1,2.44v7.35h-1.66v-7.32c0-.63-.33-.89-.93-.89-.81,0-2.2.43-3.22.96v7.25h-1.66v-7.32c0-.63-.31-.89-.93-.89-.71,0-2.19.43-3.21.96v7.25h-1.66v-9.6Zm16.21,0h1.66v7.34c0,.64.31.89.93.89.71,0,2.18-.43,3.21-.96v-7.26h1.66v9.6h-1.34l-.15-.83c-1.08.52-2.73,1.03-3.88,1.03-1.53,0-2.09-.97-2.09-2.45v-7.35Zm10.37,7.99c.84.22,1.92.39,2.74.39,1.53,0,1.79-.27,1.79-1.3s-.08-1.14-2.01-1.61c-2.39-.59-2.6-1.06-2.6-3.07,0-1.78.78-2.58,3.29-2.58.94,0,1.94.11,2.73.33l-.11,1.36c-.82-.17-1.88-.27-2.68-.27-1.4,0-1.6.33-1.6,1.2,0,1.09.02,1.28,1.62,1.65,2.76.7,2.99,1.03,2.99,2.94s-.58,2.78-3.32,2.78c-.98,0-2.29-.23-3.06-.51l.21-1.3Zm9.28-.95c.82,0,1.38.55,1.38,1.34s-.56,1.34-1.38,1.34-1.38-.55-1.38-1.34.56-1.34,1.38-1.34" fill="white" stroke-width="0"></path>
  </g>
</svg>
