<svg viewBox="0 0 174 26" xmlns="http://www.w3.org/2000/svg" fill-rule="evenodd" clip-rule="evenodd" stroke-linejoin="round" stroke-miterlimit="1.414"><path d="M47.112 25.298v-.01c0-.084.028-.132.085-.207l4.396-5.723h-4.161a.222.222 0 01-.226-.217.23.23 0 01.226-.226h4.595c.122 0 .235.104.235.207v.009c0 .085-.028.132-.085.207l-4.397 5.725h4.322a.22.22 0 01.226.216.229.229 0 01-.226.226h-4.755c-.122 0-.235-.103-.235-.207m7.286-.038v-6.101a.25.25 0 01.245-.244h4.255c.123 0 .226.104.226.226a.228.228 0 01-.226.225h-4.01v2.589h3.587a.23.23 0 01.226.227.229.229 0 01-.226.225h-3.587v2.646h4.057c.123 0 .226.103.226.227a.228.228 0 01-.226.225h-4.302a.25.25 0 01-.245-.245m9.526-2.928c1.102 0 1.921-.556 1.921-1.506v-.019c0-.885-.697-1.441-1.893-1.441h-2.25v2.966h2.222zm-2.711-3.173c0-.132.113-.244.245-.244h2.523c.809 0 1.459.254 1.854.649.311.311.499.753.499 1.224v.019c0 1.101-.819 1.732-1.93 1.882l1.874 2.43c.047.057.075.112.075.169a.266.266 0 01-.254.255c-.094 0-.16-.057-.217-.132l-2.024-2.637h-2.156v2.524a.25.25 0 01-.244.245.25.25 0 01-.245-.245v-6.139zm7.455-.028c0-.132.113-.244.245-.244h.047c.104 0 .179.056.245.14l2.57 3.786 2.57-3.786a.294.294 0 01.245-.14h.047c.132 0 .245.112.245.244v6.167a.25.25 0 01-.245.245.25.25 0 01-.245-.245V19.78l-2.419 3.522c-.057.085-.123.122-.207.122-.085 0-.151-.037-.207-.122l-2.42-3.522v5.528a.233.233 0 01-.236.235.233.233 0 01-.235-.235v-6.177zm12.879 4.086l-1.732-3.813-1.742 3.813h3.474zm-4.877 1.968l2.815-6.101c.066-.141.16-.235.33-.235h.018c.17 0 .264.094.33.235l2.805 6.082a.317.317 0 01.038.151.231.231 0 01-.235.226c-.113 0-.198-.085-.245-.188l-.772-1.696h-3.888l-.772 1.704c-.047.114-.123.18-.235.18-.123 0-.227-.095-.227-.208 0-.037.01-.094.038-.15zm9.084-5.818h-2.109a.23.23 0 01-.226-.226c0-.122.104-.225.226-.225h4.707c.123 0 .226.103.226.225a.229.229 0 01-.226.226h-2.109v5.932a.25.25 0 01-.244.245.25.25 0 01-.245-.245v-5.932zm6.628 0h-2.109a.23.23 0 01-.226-.226c0-.122.104-.225.226-.225h4.707c.123 0 .226.103.226.225a.229.229 0 01-.226.226h-2.109v5.932a.25.25 0 01-.244.245.25.25 0 01-.245-.245v-5.932zm11.286 5.686c1.13 0 1.845-.518 1.845-1.346v-.019c0-.81-.706-1.281-2.005-1.281h-2.231v2.646h2.391zm-.216-3.098c.988 0 1.694-.479 1.694-1.355v-.019c0-.724-.593-1.215-1.647-1.215h-2.222v2.589h2.175zm-2.665-2.796a.25.25 0 01.245-.244h2.476c.744 0 1.347.216 1.714.583.273.274.423.622.423 1.036v.019c0 .895-.583 1.347-1.12 1.562.791.208 1.487.66 1.487 1.573v.019c0 1.102-.941 1.798-2.363 1.798h-2.617a.25.25 0 01-.245-.245v-6.101zm7.484 6.101v-6.101a.25.25 0 01.245-.244h4.255c.123 0 .226.104.226.226a.228.228 0 01-.226.225h-4.01v2.589h3.587a.23.23 0 01.226.227.229.229 0 01-.226.225h-3.587v2.646h4.057c.123 0 .226.103.226.227a.228.228 0 01-.226.225h-4.302a.25.25 0 01-.245-.245m9.508-2.928c1.102 0 1.921-.556 1.921-1.506v-.019c0-.885-.697-1.441-1.893-1.441h-2.25v2.966h2.222zm-2.711-3.173c0-.132.113-.244.245-.244h2.523c.809 0 1.459.254 1.854.649.311.311.499.753.499 1.224v.019c0 1.101-.819 1.732-1.93 1.882l1.874 2.43c.047.057.075.112.075.169a.266.266 0 01-.254.255c-.094 0-.16-.057-.217-.132l-2.024-2.637h-2.156v2.524a.248.248 0 01-.244.245.25.25 0 01-.245-.245v-6.139zm7.013 3.07v-.019c0-1.779 1.29-3.408 3.257-3.408.989 0 1.639.273 2.25.735a.248.248 0 01-.15.442.255.255 0 01-.151-.066c-.508-.395-1.064-.668-1.977-.668-1.601 0-2.721 1.355-2.721 2.946v.019c0 1.705 1.064 2.975 2.825 2.975.837 0 1.619-.348 2.099-.753V22.54h-2.053a.229.229 0 01-.225-.226c0-.123.103-.227.225-.227h2.279a.25.25 0 01.245.246v2.156c0 .094-.066.197-.17.282-.621.48-1.44.848-2.419.848-2.081 0-3.314-1.536-3.314-3.39m11.202 2.824c1.129 0 1.844-.518 1.844-1.346v-.019c0-.81-.706-1.281-2.004-1.281h-2.231v2.646h2.391zm-.216-3.098c.987 0 1.693-.479 1.693-1.355v-.019c0-.724-.593-1.215-1.646-1.215h-2.222v2.589h2.175zm-2.665-2.796a.25.25 0 01.245-.244h2.476c.743 0 1.345.216 1.712.583.274.274.424.622.424 1.036v.019c0 .895-.584 1.347-1.12 1.562.791.208 1.487.66 1.487 1.573v.019c0 1.102-.941 1.798-2.362 1.798h-2.617a.25.25 0 01-.245-.245v-6.101zm11.738 4.058l-1.732-3.813-1.742 3.813h3.474zm-4.877 1.968l2.815-6.101c.066-.141.161-.235.33-.235h.019c.169 0 .264.094.329.235l2.806 6.082a.33.33 0 01.038.151.231.231 0 01-.235.226c-.114 0-.199-.085-.246-.188l-.772-1.696h-3.888l-.772 1.704c-.047.114-.122.18-.235.18-.123 0-.226-.095-.226-.208 0-.037.01-.094.037-.15zm8.351-6.063c0-.132.112-.245.244-.245a.25.25 0 01.245.245v2.843h4.218v-2.843a.25.25 0 01.245-.245c.132 0 .244.113.244.245v6.176a.248.248 0 01-.244.245.25.25 0 01-.245-.245v-2.881h-4.218v2.881a.25.25 0 01-.245.245.248.248 0 01-.244-.245v-6.176zm7.832.009c0-.132.112-.244.244-.244h.075c.104 0 .18.056.245.14l4.444 5.64v-5.555c0-.131.103-.235.235-.235s.236.104.236.235v6.214c0 .114-.084.207-.198.207h-.038c-.094 0-.169-.066-.244-.16l-4.528-5.743v5.678a.233.233 0 01-.236.235.233.233 0 01-.235-.235v-6.177zm8.114 6.129v-6.101c0-.131.112-.244.244-.244h4.256a.23.23 0 01.226.226.229.229 0 01-.226.225h-4.011v2.589h3.587a.23.23 0 01.226.227.229.229 0 01-.226.225h-3.587v2.646h4.058c.122 0 .225.103.225.227a.228.228 0 01-.225.225h-4.303a.248.248 0 01-.244-.245m6.797-6.129c0-.132.112-.244.244-.244h.075c.104 0 .18.056.245.14l4.444 5.64v-5.555c0-.131.103-.235.235-.235s.236.104.236.235v6.214c0 .114-.084.207-.198.207h-.038c-.094 0-.169-.066-.244-.16l-4.528-5.743v5.678a.233.233 0 01-.236.235.233.233 0 01-.235-.235v-6.177zM4.482 18.688l5.177-3.323-6.272 9.136a.409.409 0 00-.046.084H1.277l3.205-5.897zm8.68-10.163l1.793-.761 6.091-.898-2.195 2.956-.006.01a.023.023 0 00-.007.013.206.206 0 00-.023.037c-.005.006-.008.013-.013.021-.004.009-.006.02-.011.031l-.008.019c-.003.006-.003.009-.004.014l-.007.022c-.004.011-.004.024-.006.036a.149.149 0 00-.005.036l-.004.021.001.033c.002.013.002.027.003.042l.001.015v.004l.57 3.873-5.621 10.324-6.19-4.211 4.257-6.203c.006-.006.01-.016.015-.026.009-.016.019-.033.027-.05a.23.23 0 00.015-.042c.004-.012.01-.023.013-.035l1.314-5.281zm4.706-7.28l3.394 4.627-5.882.866.409-3.032 2.079-2.461zm4.901 2.766l-.718 1.328-2.961-4.041 1.695.47 1.984 2.243zm4.261 5.192l-4.302-3.117.837-1.545 1.376.539 2.089 4.123zm-7.181 5.888l8.867 9.494H14.68l5.169-9.494zm6.038-2.237l-5.64.865-.43-2.914 6.07 2.049zm1.929-1.905l-.288 1.456-7.524-2.541 2.21-2.976 5.602 4.061zM6.982 20.946l5.351 3.639H4.482l2.5-3.639zm22.655-6.711l1.012 2.347.001.001 3.278 8.002h-3.91l-9.313-9.971 7.129-1.096 1.803.717zm10.375 10.35h-5.057l-3.187-7.786 1.868-.203 6.376 7.989zm1.366.764l.028-.042c.009-.014.014-.025.02-.037a.396.396 0 00.032-.088c.006-.015.008-.031.011-.048l.004-.046c0-.009.004-.017.004-.027l-.002-.019-.005-.047-.009-.045a.223.223 0 00-.013-.044c-.006-.016-.01-.03-.018-.045a.304.304 0 00-.019-.036c-.01-.016-.019-.032-.03-.046l-.008-.015-7.155-8.968a.473.473 0 00-.424-.174l-2.409.258-.954-2.204a.467.467 0 00-.261-.253l-1.736-.691.358-1.801a.468.468 0 00.038-.188.47.47 0 00-.104-.298l-3.018-5.958a.472.472 0 00-.25-.228l-1.831-.716-2.223-2.512a.467.467 0 00-.23-.143L18.022.017h-.001L18.01.016a.402.402 0 00-.091-.015h-.012a.476.476 0 00-.369.161c-.001.003-.005.005-.007.006l-2.558 3.029a.482.482 0 00-.108.245l-.476 3.527-1.816.773a.474.474 0 00-.277.322l-1.327 5.329-7.104 4.559a.466.466 0 00-.159.174L.058 24.834c-.003.005-.004.012-.006.016-.008.019-.017.037-.024.056l-.01.034c-.006.019-.008.036-.011.054a.544.544 0 00-.004.042c0 .008-.003.016-.003.025 0 .01.003.018.003.026l.003.041c.004.018.006.035.012.051a.421.421 0 00.01.038l.02.049c.006.012.011.023.018.033.01.016.018.031.029.045a.477.477 0 00.025.031l.037.038c.01.007.019.016.031.023.014.014.031.023.046.034l.016.01c.003.001.008.002.012.005.026.014.053.023.08.032.01.001.017.006.027.007a.45.45 0 00.106.015h40.527a.42.42 0 00.086-.01c.01-.001.019-.005.029-.007l.055-.017.031-.014c.015-.008.03-.015.045-.025a.296.296 0 00.032-.021l.018-.012.016-.016a.323.323 0 00.037-.037.193.193 0 00.027-.031zm7.953-24.153c.019-.148.13-.278.335-.278h.298a.34.34 0 01.316.185l4.092 8.78h.056l4.092-8.78c.056-.111.148-.185.316-.185h.298c.204 0 .316.13.334.278l2.196 12.5c.055.261-.094.428-.335.428h-1.693c-.168 0-.316-.149-.353-.28l-1.098-7.048h-.056l-3.255 7.309c-.037.112-.148.204-.316.204h-.335c-.167 0-.26-.092-.316-.204l-3.292-7.309h-.056l-1.079 7.048a.361.361 0 01-.335.28h-1.674c-.242 0-.39-.167-.353-.428l2.213-12.5zm21.671 8.482l-1.86-4.093h-.056l-1.822 4.093h3.738zm-8.035 3.962l5.785-12.519c.055-.111.148-.204.316-.204h.186c.186 0 .26.093.316.204l5.729 12.519c.112.241-.037.483-.316.483h-1.619c-.279 0-.409-.111-.539-.372l-.911-2.009h-5.562l-.912 2.009a.558.558 0 01-.539.372h-1.618c-.279 0-.428-.242-.316-.483zM78.518 3.335h-2.846a.354.354 0 01-.353-.354V1.456c0-.185.149-.353.353-.353h8.129c.204 0 .353.168.353.353v1.525a.354.354 0 01-.353.354h-2.846V13.77a.365.365 0 01-.354.353h-1.729a.365.365 0 01-.354-.353V3.335zm10.548 0H86.22a.354.354 0 01-.353-.354V1.456c0-.185.149-.353.353-.353h8.129c.204 0 .353.168.353.353v1.525a.354.354 0 01-.353.354h-2.846V13.77a.365.365 0 01-.354.353H89.42a.365.365 0 01-.354-.353V3.335zm8-1.878c0-.186.148-.354.353-.354h7.57c.205 0 .354.168.354.354v1.525a.354.354 0 01-.354.354h-5.505v3.051h4.594c.186 0 .354.167.354.352v1.544a.354.354 0 01-.354.354h-4.594v3.255h5.505c.205 0 .354.168.354.353v1.525a.353.353 0 01-.354.354h-7.57a.352.352 0 01-.353-.354V1.457zm16.816 5.58c.986 0 1.841-.855 1.841-1.897 0-.986-.855-1.804-1.841-1.804h-3.032v3.701h3.032zm-5.468-5.58c0-.186.148-.354.353-.354h5.32c2.232 0 4.055 1.787 4.055 3.999 0 1.712-1.135 3.107-2.753 3.758l2.548 4.725c.13.241 0 .539-.316.539h-1.953c-.168 0-.261-.093-.298-.167l-2.474-4.93h-2.064v4.743a.366.366 0 01-.354.354h-1.711a.352.352 0 01-.353-.354V1.457zm12.575 0c0-.186.167-.354.353-.354h1.73c.205 0 .354.168.354.354v4.93h6.063v-4.93c0-.186.149-.354.354-.354h1.711c.186 0 .353.168.353.354V13.77a.365.365 0 01-.353.354h-1.711a.353.353 0 01-.354-.354V8.637h-6.063v5.133a.353.353 0 01-.354.354h-1.73a.365.365 0 01-.353-.354V1.457zm20.051 10.434c2.344 0 4.278-1.915 4.278-4.259 0-2.344-1.934-4.297-4.278-4.297-2.344 0-4.26 1.953-4.26 4.297a4.27 4.27 0 004.26 4.259m0-10.974a6.684 6.684 0 016.696 6.715c0 3.72-2.976 6.677-6.696 6.677a6.636 6.636 0 01-6.678-6.677c0-3.72 2.957-6.715 6.678-6.715m14.64 6.12c.986 0 1.842-.855 1.842-1.897 0-.986-.856-1.804-1.842-1.804h-3.032v3.701h3.032zm-5.469-5.58c0-.186.15-.354.354-.354h5.32c2.232 0 4.055 1.787 4.055 3.999 0 1.712-1.135 3.107-2.753 3.758l2.548 4.725c.131.241 0 .539-.317.539h-1.952c-.168 0-.261-.093-.298-.167l-2.473-4.93h-2.066v4.743a.365.365 0 01-.353.354h-1.711a.354.354 0 01-.354-.354V1.457zm12.762-.205c0-.187.168-.335.354-.335h.464l7.739 8.221h.018V1.456c0-.185.149-.353.354-.353h1.711c.186 0 .353.168.353.353v12.519c0 .185-.167.334-.353.334h-.447l-7.775-8.537h-.019v7.998a.352.352 0 01-.353.353h-1.692a.366.366 0 01-.354-.353V1.252z" fill="#fff"/></svg>
